<mxfile host="65bd71144e">
    <diagram id="nh0Y7LibT0F5upaKJ0zc" name="Page-1">
        <mxGraphModel dx="1840" dy="675" grid="1" gridSize="10" guides="1" tooltips="1" connect="1" arrows="1" fold="1" page="0" pageScale="1" pageWidth="850" pageHeight="1100" math="0" shadow="0">
            <root>
                <mxCell id="0"/>
                <mxCell id="1" parent="0"/>
                <mxCell id="7" value="" style="edgeStyle=none;html=1;" edge="1" parent="1" source="2" target="6">
                    <mxGeometry relative="1" as="geometry"/>
                </mxCell>
                <mxCell id="2" value="Base url&amp;nbsp;&lt;br&gt;http://local host:3000" style="shape=trapezoid;perimeter=trapezoidPerimeter;whiteSpace=wrap;html=1;fixedSize=1;" vertex="1" parent="1">
                    <mxGeometry x="-106.36000000000001" y="620" width="152.73" height="60" as="geometry"/>
                </mxCell>
                <mxCell id="6" value="interceptor&lt;br&gt;re authenticate&lt;br&gt;&lt;font color=&quot;#ff0000&quot;&gt;header : JWT token&lt;/font&gt;" style="rhombus;whiteSpace=wrap;html=1;" vertex="1" parent="1">
                    <mxGeometry x="-125" y="380" width="190.01" height="150" as="geometry"/>
                </mxCell>
                <mxCell id="14" value="Interceptor" style="edgeStyle=orthogonalEdgeStyle;html=1;exitX=1;exitY=0.5;exitDx=0;exitDy=0;exitPerimeter=0;entryX=0;entryY=0.5;entryDx=0;entryDy=0;fontSize=20;fontColor=#FFFFFF;" edge="1" parent="1" source="8" target="13">
                    <mxGeometry x="0.7255" relative="1" as="geometry">
                        <mxPoint as="offset"/>
                    </mxGeometry>
                </mxCell>
                <mxCell id="17" style="edgeStyle=orthogonalEdgeStyle;html=1;entryX=-0.002;entryY=0.615;entryDx=0;entryDy=0;entryPerimeter=0;fontSize=20;fontColor=#FFFFFF;" edge="1" parent="1" source="8" target="16">
                    <mxGeometry relative="1" as="geometry"/>
                </mxCell>
                <mxCell id="23" value="Audit" style="edgeLabel;html=1;align=center;verticalAlign=middle;resizable=0;points=[];fontSize=20;fontColor=#FFFFFF;" vertex="1" connectable="0" parent="17">
                    <mxGeometry x="0.7217" y="1" relative="1" as="geometry">
                        <mxPoint x="-15" as="offset"/>
                    </mxGeometry>
                </mxCell>
                <mxCell id="21" style="edgeStyle=orthogonalEdgeStyle;html=1;entryX=0;entryY=0.5;entryDx=0;entryDy=0;fontSize=20;fontColor=#FFFFFF;" edge="1" parent="1" source="8" target="20">
                    <mxGeometry relative="1" as="geometry"/>
                </mxCell>
                <mxCell id="22" value="Admin" style="edgeLabel;html=1;align=center;verticalAlign=middle;resizable=0;points=[];fontSize=20;fontColor=#FFFFFF;" vertex="1" connectable="0" parent="21">
                    <mxGeometry x="0.7765" y="2" relative="1" as="geometry">
                        <mxPoint as="offset"/>
                    </mxGeometry>
                </mxCell>
                <mxCell id="24" style="edgeStyle=orthogonalEdgeStyle;html=1;entryX=0;entryY=0.5;entryDx=0;entryDy=0;fontSize=20;fontColor=#FFFFFF;" edge="1" parent="1" source="8" target="18">
                    <mxGeometry relative="1" as="geometry"/>
                </mxCell>
                <mxCell id="25" value="Editor" style="edgeLabel;html=1;align=center;verticalAlign=middle;resizable=0;points=[];fontSize=20;fontColor=#FFFFFF;" vertex="1" connectable="0" parent="24">
                    <mxGeometry x="0.6836" relative="1" as="geometry">
                        <mxPoint x="-14" as="offset"/>
                    </mxGeometry>
                </mxCell>
                <mxCell id="8" value="&lt;font style=&quot;font-size: 20px;&quot; color=&quot;#ffffff&quot;&gt;Redux Store&lt;/font&gt;" style="shape=cylinder3;whiteSpace=wrap;html=1;boundedLbl=1;backgroundOutline=1;size=15;fontColor=#FF0000;" vertex="1" parent="1">
                    <mxGeometry x="-620" y="875" width="160" height="220" as="geometry"/>
                </mxCell>
                <mxCell id="13" value="&lt;font color=&quot;#ffffff&quot;&gt;auth slice&lt;br&gt;&lt;/font&gt;" style="whiteSpace=wrap;html=1;fontColor=#FF0000;fontSize=20;" vertex="1" parent="1">
                    <mxGeometry x="-110" y="720" width="160" height="90" as="geometry"/>
                </mxCell>
                <mxCell id="16" value="&lt;font color=&quot;#ffffff&quot;&gt;sales slice&lt;/font&gt;" style="whiteSpace=wrap;html=1;fontColor=#FF0000;fontSize=20;" vertex="1" parent="1">
                    <mxGeometry x="-110" y="1030" width="160" height="90" as="geometry"/>
                </mxCell>
                <mxCell id="27" style="edgeStyle=orthogonalEdgeStyle;html=1;exitX=1;exitY=0.5;exitDx=0;exitDy=0;fontSize=20;fontColor=#FFFFFF;" edge="1" parent="1" source="18" target="26">
                    <mxGeometry relative="1" as="geometry"/>
                </mxCell>
                <mxCell id="18" value="&lt;font color=&quot;#ffffff&quot;&gt;products slice&lt;br&gt;&lt;/font&gt;" style="whiteSpace=wrap;html=1;fontColor=#FF0000;fontSize=20;" vertex="1" parent="1">
                    <mxGeometry x="-110" y="875" width="160" height="90" as="geometry"/>
                </mxCell>
                <mxCell id="20" value="&lt;font color=&quot;#ffffff&quot;&gt;members slice&lt;/font&gt;" style="whiteSpace=wrap;html=1;fontColor=#FF0000;fontSize=20;" vertex="1" parent="1">
                    <mxGeometry x="-110" y="1190" width="160" height="90" as="geometry"/>
                </mxCell>
                <mxCell id="32" value="" style="edgeStyle=orthogonalEdgeStyle;html=1;fontSize=20;fontColor=#00CC00;" edge="1" parent="1" source="26" target="31">
                    <mxGeometry relative="1" as="geometry"/>
                </mxCell>
                <mxCell id="26" value="&lt;font color=&quot;#00cc00&quot;&gt;GET&lt;/font&gt;&lt;br&gt;Entity Adapter" style="whiteSpace=wrap;html=1;fontSize=20;fontColor=#FFFFFF;" vertex="1" parent="1">
                    <mxGeometry x="360" y="745" width="240" height="130" as="geometry"/>
                </mxCell>
                <mxCell id="29" value="" style="shape=flexArrow;endArrow=classic;html=1;fontSize=20;fontColor=#FFFFFF;" edge="1" parent="1">
                    <mxGeometry width="50" height="50" relative="1" as="geometry">
                        <mxPoint x="479.52" y="620" as="sourcePoint"/>
                        <mxPoint x="479.52" y="720" as="targetPoint"/>
                    </mxGeometry>
                </mxCell>
                <mxCell id="30" value="Data From Sever" style="text;strokeColor=none;fillColor=none;align=center;verticalAlign=middle;spacingLeft=4;spacingRight=4;overflow=hidden;points=[[0,0.5],[1,0.5]];portConstraint=eastwest;rotatable=0;whiteSpace=wrap;html=1;fontSize=20;fontColor=#FFFFFF;" vertex="1" parent="1">
                    <mxGeometry x="380" y="550" width="205" height="50" as="geometry"/>
                </mxCell>
                <mxCell id="31" value="product ids" style="whiteSpace=wrap;html=1;fontSize=20;fontColor=#FFFFFF;" vertex="1" parent="1">
                    <mxGeometry x="420" y="950" width="120" height="60" as="geometry"/>
                </mxCell>
            </root>
        </mxGraphModel>
    </diagram>
</mxfile>